<svg viewBox="0 0 1400 1000" xmlns="http://www.w3.org/2000/svg" font-family="'Segoe UI', 'Consolas', monospace">
  <defs>
    <linearGradient id="bgGrad" x1="0%" y1="0%" x2="100%" y2="100%">
      <stop offset="0%" stop-color="#0a0a12"/>
      <stop offset="100%" stop-color="#12121f"/>
    </linearGradient>

    <linearGradient id="infraGrad" x1="0%" y1="0%" x2="100%" y2="100%">
      <stop offset="0%" stop-color="#2a1030"/>
      <stop offset="100%" stop-color="#1a0a1e"/>
    </linearGradient>
    <linearGradient id="engineGrad" x1="0%" y1="0%" x2="100%" y2="100%">
      <stop offset="0%" stop-color="#0a2a3a"/>
      <stop offset="100%" stop-color="#081824"/>
    </linearGradient>
    <linearGradient id="dashGrad" x1="0%" y1="0%" x2="100%" y2="100%">
      <stop offset="0%" stop-color="#0a2a1e"/>
      <stop offset="100%" stop-color="#071a14"/>
    </linearGradient>
    <linearGradient id="persistGrad" x1="0%" y1="0%" x2="100%" y2="100%">
      <stop offset="0%" stop-color="#2a2408"/>
      <stop offset="100%" stop-color="#1a1606"/>
    </linearGradient>
    <linearGradient id="chatGrad" x1="0%" y1="0%" x2="100%" y2="100%">
      <stop offset="0%" stop-color="#22102e"/>
      <stop offset="100%" stop-color="#150a1c"/>
    </linearGradient>

    <filter id="glowRed" x="-50%" y="-50%" width="200%" height="200%">
      <feGaussianBlur stdDeviation="4" result="blur"/>
      <feMerge><feMergeNode in="blur"/><feMergeNode in="SourceGraphic"/></feMerge>
    </filter>
    <filter id="glowCyan" x="-50%" y="-50%" width="200%" height="200%">
      <feGaussianBlur stdDeviation="5" result="blur"/>
      <feMerge><feMergeNode in="blur"/><feMergeNode in="SourceGraphic"/></feMerge>
    </filter>
    <filter id="glowGreen" x="-50%" y="-50%" width="200%" height="200%">
      <feGaussianBlur stdDeviation="4" result="blur"/>
      <feMerge><feMergeNode in="blur"/><feMergeNode in="SourceGraphic"/></feMerge>
    </filter>
    <filter id="glowYellow" x="-50%" y="-50%" width="200%" height="200%">
      <feGaussianBlur stdDeviation="4" result="blur"/>
      <feMerge><feMergeNode in="blur"/><feMergeNode in="SourceGraphic"/></feMerge>
    </filter>
    <filter id="glowPurple" x="-50%" y="-50%" width="200%" height="200%">
      <feGaussianBlur stdDeviation="4" result="blur"/>
      <feMerge><feMergeNode in="blur"/><feMergeNode in="SourceGraphic"/></feMerge>
    </filter>

    <pattern id="grid" width="40" height="40" patternUnits="userSpaceOnUse">
      <path d="M 40 0 L 0 0 0 40" fill="none" stroke="#1e1e2e" stroke-width="1"/>
    </pattern>

    <marker id="arrowRed" markerWidth="10" markerHeight="10" refX="8" refY="3" orient="auto">
      <path d="M0,0 L8,3 L0,6 Z" fill="#e94560"/>
    </marker>
    <marker id="arrowCyan" markerWidth="10" markerHeight="10" refX="8" refY="3" orient="auto">
      <path d="M0,0 L8,3 L0,6 Z" fill="#00d9ff"/>
    </marker>
    <marker id="arrowGreen" markerWidth="10" markerHeight="10" refX="8" refY="3" orient="auto">
      <path d="M0,0 L8,3 L0,6 Z" fill="#00ff9d"/>
    </marker>
    <marker id="arrowPurple" markerWidth="10" markerHeight="10" refX="8" refY="3" orient="auto">
      <path d="M0,0 L8,3 L0,6 Z" fill="#a06cd5"/>
    </marker>
  </defs>

  <!-- Background -->
  <rect x="0" y="0" width="1400" height="1000" fill="url(#bgGrad)"/>
  <rect x="0" y="0" width="1400" height="1000" fill="url(#grid)"/>

  <!-- Title -->
  <text x="700" y="50" text-anchor="middle" fill="#ffffff" font-size="30" font-weight="700" letter-spacing="2">🛡️ VANGUARDSEC AI</text>
  <text x="700" y="76" text-anchor="middle" fill="#7f8fa6" font-size="15" letter-spacing="3">TOPOLOGIA DE REDE — ARQUITETURA AGENTLESS</text>
  <line x1="500" y1="92" x2="900" y2="92" stroke="#e94560" stroke-width="1.5" opacity="0.6"/>

  <!-- ============ CAMADA 1: INFRAESTRUTURA ALVO ============ -->
  <text x="90" y="130" fill="#e94560" font-size="14" font-weight="700" letter-spacing="1">① INFRAESTRUTURA ALVO (AGENTLESS)</text>

  <!-- Linux target -->
  <g filter="url(#glowRed)">
    <rect x="70" y="150" width="240" height="120" rx="10" fill="url(#infraGrad)" stroke="#e94560" stroke-width="1.8"/>
  </g>
  <text x="190" y="180" text-anchor="middle" fill="#ffffff" font-size="17" font-weight="600">🐧 Servidor Linux</text>
  <text x="190" y="203" text-anchor="middle" fill="#c8c8d8" font-size="11.5">Auth Logs (/var/log/auth.log)</text>
  <text x="190" y="221" text-anchor="middle" fill="#c8c8d8" font-size="11.5">SSH Daemon — porta 22</text>
  <text x="190" y="239" text-anchor="middle" fill="#c8c8d8" font-size="11.5">UFW Firewall &amp; IPTables</text>

  <!-- Windows target -->
  <g filter="url(#glowRed)">
    <rect x="340" y="150" width="240" height="120" rx="10" fill="url(#infraGrad)" stroke="#e94560" stroke-width="1.8"/>
  </g>
  <text x="460" y="180" text-anchor="middle" fill="#ffffff" font-size="17" font-weight="600">🪟 Servidor Windows</text>
  <text x="460" y="203" text-anchor="middle" fill="#c8c8d8" font-size="11.5">Event Viewer (Security Logs)</text>
  <text x="460" y="221" text-anchor="middle" fill="#c8c8d8" font-size="11.5">WinRM — porta 5985</text>
  <text x="460" y="239" text-anchor="middle" fill="#c8c8d8" font-size="11.5">Serviços &amp; Processos Ativos</text>

  <!-- Local host telemetry -->
  <g filter="url(#glowRed)">
    <rect x="610" y="150" width="240" height="120" rx="10" fill="url(#infraGrad)" stroke="#e94560" stroke-width="1.8"/>
  </g>
  <text x="730" y="180" text-anchor="middle" fill="#ffffff" font-size="17" font-weight="600">📡 Telemetria Local</text>
  <text x="730" y="203" text-anchor="middle" fill="#c8c8d8" font-size="11.5">Métricas via psutil (CPU/RAM)</text>
  <text x="730" y="221" text-anchor="middle" fill="#c8c8d8" font-size="11.5">Conexões de Rede (LISTEN)</text>
  <text x="730" y="239" text-anchor="middle" fill="#c8c8d8" font-size="11.5">Firewall do Sistema Operacional</text>

  <!-- ============ CAMADA 2: ENGINE CORE ============ -->
  <g filter="url(#glowCyan)">
    <rect x="120" y="330" width="810" height="280" rx="14" fill="url(#engineGrad)" stroke="#00d9ff" stroke-width="2"/>
  </g>
  <text x="525" y="365" text-anchor="middle" fill="#00d9ff" font-size="16" font-weight="700" letter-spacing="1">② VANGUARDSEC AI ENGINE — CORE</text>

  <!-- Coletores -->
  <rect x="150" y="385" width="320" height="60" rx="8" fill="#0d1f2b" stroke="#00d9ff" stroke-width="1.2" opacity="0.9"/>
  <text x="310" y="410" text-anchor="middle" fill="#ffffff" font-size="12.5" font-weight="600">📥 Módulos Coletores Telemétricos</text>
  <text x="310" y="428" text-anchor="middle" fill="#8fbfd6" font-size="10.5">coletor_ssh.py (Paramiko) · coletor_winrm.py (pywinrm)</text>

  <!-- Multi-tier AI pipeline -->
  <rect x="150" y="460" width="500" height="130" rx="8" fill="#081420" stroke="#00ff9d" stroke-width="1.3" stroke-dasharray="3,2"/>
  <text x="400" y="480" text-anchor="middle" fill="#00ff9d" font-size="12" font-weight="700">🧠 ESTEIRA MULTI-TIER DE IA</text>

  <rect x="165" y="490" width="150" height="80" rx="6" fill="#0f2a20" stroke="#00ff9d" stroke-width="1"/>
  <text x="240" y="512" text-anchor="middle" fill="#ffffff" font-size="10.5" font-weight="600">🔍 Tier 1</text>
  <text x="240" y="527" text-anchor="middle" fill="#a8e8cf" font-size="9.5">Analista SOC</text>
  <text x="240" y="541" text-anchor="middle" fill="#7fa896" font-size="8.5">agente_auditor.py</text>
  <text x="240" y="558" text-anchor="middle" fill="#7fa896" font-size="8">IoCs &amp; superfície de ataque</text>

  <rect x="325" y="490" width="150" height="80" rx="6" fill="#0f2a20" stroke="#00ff9d" stroke-width="1"/>
  <text x="400" y="512" text-anchor="middle" fill="#ffffff" font-size="10.5" font-weight="600">⚖️ Tier 2</text>
  <text x="400" y="527" text-anchor="middle" fill="#a8e8cf" font-size="9.5">Compliance LGPD</text>
  <text x="400" y="541" text-anchor="middle" fill="#7fa896" font-size="8.5">agente_compliance.py</text>
  <text x="400" y="558" text-anchor="middle" fill="#7fa896" font-size="8">Mapeamento legal &amp; risco</text>

  <rect x="485" y="490" width="150" height="80" rx="6" fill="#0f2a20" stroke="#00ff9d" stroke-width="1"/>
  <text x="560" y="512" text-anchor="middle" fill="#ffffff" font-size="10.5" font-weight="600">🛠️ Tier 3</text>
  <text x="560" y="527" text-anchor="middle" fill="#a8e8cf" font-size="9.5">Engenheiro SOAR</text>
  <text x="560" y="541" text-anchor="middle" fill="#7fa896" font-size="8.5">agente_remediacao.py</text>
  <text x="560" y="558" text-anchor="middle" fill="#7fa896" font-size="8">Playbooks &amp; fixes em Bash</text>

  <path d="M315 530 L325 530" stroke="#00ff9d" stroke-width="1.5" marker-end="url(#arrowGreen)"/>
  <path d="M475 530 L485 530" stroke="#00ff9d" stroke-width="1.5" marker-end="url(#arrowGreen)"/>

  <!-- Ollama engine -->
  <g filter="url(#glowCyan)">
    <rect x="680" y="460" width="220" height="130" rx="10" fill="#08202b" stroke="#00d9ff" stroke-width="1.6"/>
  </g>
  <text x="790" y="495" text-anchor="middle" fill="#ffffff" font-size="15" font-weight="700">🦙 Ollama Engine</text>
  <text x="790" y="517" text-anchor="middle" fill="#8fd9ec" font-size="11">Modelo: qwen2.5:1.5b</text>
  <text x="790" y="537" text-anchor="middle" fill="#8fd9ec" font-size="11">100% On-Premise</text>
  <text x="790" y="557" text-anchor="middle" fill="#8fd9ec" font-size="11">Privacidade Total</text>

  <path d="M680 525 L655 525" stroke="#00d9ff" stroke-width="1.5" stroke-dasharray="4,3" marker-end="url(#arrowCyan)"/>

  <!-- Arrows: infra -> coletores -->
  <path d="M190 270 L190 300 L310 300 L310 385" fill="none" stroke="#e94560" stroke-width="1.8" marker-end="url(#arrowRed)"/>
  <path d="M460 270 L460 300 L310 300 L310 385" fill="none" stroke="#e94560" stroke-width="1.8"/>
  <path d="M730 270 L730 300 L310 300 L310 385" fill="none" stroke="#e94560" stroke-width="1.8"/>
  <text x="500" y="295" text-anchor="middle" fill="#e94560" font-size="10">SSH / WinRM / psutil</text>

  <path d="M310 445 L310 460" stroke="#00d9ff" stroke-width="1.5" marker-end="url(#arrowCyan)"/>

  <!-- ============ CAMADA 3: DASHBOARD ============ -->
  <text x="1150" y="130" fill="#00ff9d" font-size="14" font-weight="700" letter-spacing="1" text-anchor="middle">③ DASHBOARD</text>
  <g filter="url(#glowGreen)">
    <rect x="980" y="150" width="340" height="440" rx="12" fill="url(#dashGrad)" stroke="#00ff9d" stroke-width="1.8"/>
  </g>
  <text x="1150" y="180" text-anchor="middle" fill="#ffffff" font-size="14" font-weight="700">📊 Streamlit — app.py</text>

  <rect x="1005" y="200" width="290" height="42" rx="6" fill="#0d2a20" stroke="#00ff9d" stroke-width="1"/>
  <text x="1150" y="226" text-anchor="middle" fill="#ffffff" font-size="11.5">📈 Dashboard Executivo</text>

  <rect x="1005" y="252" width="290" height="42" rx="6" fill="#0d2a20" stroke="#00ff9d" stroke-width="1"/>
  <text x="1150" y="278" text-anchor="middle" fill="#ffffff" font-size="11.5">🔬 Esteira Multi-Tier</text>

  <rect x="1005" y="304" width="290" height="42" rx="6" fill="#0d2a20" stroke="#00ff9d" stroke-width="1"/>
  <text x="1150" y="330" text-anchor="middle" fill="#ffffff" font-size="11.5">🌐 Monitoramento Infra</text>

  <rect x="1005" y="356" width="290" height="42" rx="6" fill="#0d2a20" stroke="#00ff9d" stroke-width="1"/>
  <text x="1150" y="382" text-anchor="middle" fill="#ffffff" font-size="11.5">🛡️ Playbooks SOAR</text>

  <rect x="1005" y="408" width="290" height="42" rx="6" fill="#0d2a20" stroke="#00ff9d" stroke-width="1"/>
  <text x="1150" y="434" text-anchor="middle" fill="#ffffff" font-size="11.5">📱 Painel ChatOps</text>

  <rect x="1005" y="460" width="290" height="42" rx="6" fill="#0d2a20" stroke="#00ff9d" stroke-width="1"/>
  <text x="1150" y="486" text-anchor="middle" fill="#ffffff" font-size="11.5">📄 Centro de Relatórios</text>

  <path d="M930 470 L980 470" stroke="#00ff9d" stroke-width="1.8" marker-end="url(#arrowGreen)"/>
  <text x="955" y="460" text-anchor="middle" fill="#00ff9d" font-size="9">diagnósticos</text>

  <!-- ============ CAMADA 4: PERSISTÊNCIA ============ -->
  <text x="240" y="675" fill="#ffd166" font-size="14" font-weight="700" letter-spacing="1">④ PERSISTÊNCIA &amp; DOCUMENTAÇÃO</text>
  <g filter="url(#glowYellow)">
    <rect x="120" y="695" width="500" height="150" rx="12" fill="url(#persistGrad)" stroke="#ffd166" stroke-width="1.8"/>
  </g>

  <rect x="145" y="720" width="140" height="100" rx="7" fill="#241f08" stroke="#ffd166" stroke-width="1"/>
  <text x="215" y="750" text-anchor="middle" fill="#ffffff" font-size="11" font-weight="600">📜 Histórico</text>
  <text x="215" y="768" text-anchor="middle" fill="#e0c878" font-size="9">historico_scans.json</text>
  <text x="215" y="800" text-anchor="middle" fill="#a89858" font-size="8">Scans, métricas e</text>
  <text x="215" y="811" text-anchor="middle" fill="#a89858" font-size="8">análises de IA</text>

  <rect x="300" y="720" width="140" height="100" rx="7" fill="#241f08" stroke="#ffd166" stroke-width="1"/>
  <text x="370" y="750" text-anchor="middle" fill="#ffffff" font-size="11" font-weight="600">📕 Relatórios</text>
  <text x="370" y="768" text-anchor="middle" fill="#e0c878" font-size="9">gerador_pdf.py</text>
  <text x="370" y="800" text-anchor="middle" fill="#a89858" font-size="8">Laudos executivos</text>
  <text x="370" y="811" text-anchor="middle" fill="#a89858" font-size="8">para diretoria/SOC</text>

  <rect x="455" y="720" width="140" height="100" rx="7" fill="#241f08" stroke="#ffd166" stroke-width="1"/>
  <text x="525" y="750" text-anchor="middle" fill="#ffffff" font-size="11" font-weight="600">📋 Políticas</text>
  <text x="525" y="768" text-anchor="middle" fill="#e0c878" font-size="9">politicas.py</text>
  <text x="525" y="800" text-anchor="middle" fill="#a89858" font-size="8">Engine de regras e</text>
  <text x="525" y="811" text-anchor="middle" fill="#a89858" font-size="8">conformidade legal</text>

  <path d="M1000 590 L1000 630 L370 630 L370 695" fill="none" stroke="#ffd166" stroke-width="1.6" marker-end="url(#arrowGreen)"/>

  <!-- ============ CAMADA 5: CHATOPS ============ -->
  <text x="920" y="675" fill="#a06cd5" font-size="14" font-weight="700" letter-spacing="1">⑤ CHATOPS &amp; AUTOMAÇÕES</text>
  <g filter="url(#glowPurple)">
    <rect x="680" y="695" width="440" height="150" rx="12" fill="url(#chatGrad)" stroke="#a06cd5" stroke-width="1.8"/>
  </g>

  <rect x="705" y="720" width="120" height="100" rx="7" fill="#1e0f28" stroke="#a06cd5" stroke-width="1"/>
  <text x="765" y="750" text-anchor="middle" fill="#ffffff" font-size="11" font-weight="600">🤖 Bot</text>
  <text x="765" y="768" text-anchor="middle" fill="#d4b8ec" font-size="9">chatops_bot.py</text>
  <text x="765" y="800" text-anchor="middle" fill="#9878b0" font-size="8">60 automações</text>
  <text x="765" y="811" text-anchor="middle" fill="#9878b0" font-size="8">SOAR via chat</text>

  <rect x="845" y="720" width="120" height="100" rx="7" fill="#1e0f28" stroke="#a06cd5" stroke-width="1"/>
  <text x="905" y="750" text-anchor="middle" fill="#ffffff" font-size="11" font-weight="600">🔘 Inline</text>
  <text x="905" y="768" text-anchor="middle" fill="#d4b8ec" font-size="9">Botões rápidos</text>
  <text x="905" y="800" text-anchor="middle" fill="#9878b0" font-size="8">Bloqueio imediato</text>
  <text x="905" y="811" text-anchor="middle" fill="#9878b0" font-size="8">de IP</text>

  <rect x="985" y="720" width="120" height="100" rx="7" fill="#1e0f28" stroke="#a06cd5" stroke-width="1"/>
  <text x="1045" y="750" text-anchor="middle" fill="#ffffff" font-size="11" font-weight="600">🔔 Webhook</text>
  <text x="1045" y="768" text-anchor="middle" fill="#d4b8ec" font-size="9">notificador.py</text>
  <text x="1045" y="800" text-anchor="middle" fill="#9878b0" font-size="8">Alertas para</text>
  <text x="1045" y="811" text-anchor="middle" fill="#9878b0" font-size="8">Discord/SIEM</text>

  <path d="M1050 590 L1050 630 L900 630 L900 695" fill="none" stroke="#a06cd5" stroke-width="1.6" marker-end="url(#arrowPurple)"/>

  <!-- Remediação de volta para infraestrutura -->
  <path d="M680 745 C 400 900, 100 850, 190 270" fill="none" stroke="#a06cd5" stroke-width="1.5" stroke-dasharray="6,4" marker-end="url(#arrowPurple)" opacity="0.75"/>
  <path d="M680 770 C 300 950, 460 900, 460 270" fill="none" stroke="#a06cd5" stroke-width="1.5" stroke-dasharray="6,4" marker-end="url(#arrowPurple)" opacity="0.75"/>
  <text x="330" y="930" fill="#a06cd5" font-size="10" font-style="italic">↺ remediação SOAR (bloqueio de firewall / restart de serviços)</text>

  <!-- Footer -->
  <text x="700" y="975" text-anchor="middle" fill="#4a4a5a" font-size="11">VanguardSec AI v1.0 — David Nonato · github.com/DavidNonato23</text>
</svg>
